<svg viewBox="0 0 200 200" xmlns="http://www.w3.org/2000/svg">
  <!-- Background circle -->
  <circle cx="100" cy="100" r="95" fill="rgba(16, 185, 129, 0.1)" stroke="#10b981" stroke-width="2"/>
  
  <!-- Gradient definition -->
  <defs>
    <linearGradient id="leafGradient" x1="0%" y1="0%" x2="100%" y2="100%">
      <stop offset="0%" style="stop-color:#6ee7b7;stop-opacity:1" />
      <stop offset="100%" style="stop-color:#10b981;stop-opacity:1" />
    </linearGradient>
    <linearGradient id="liquidGradient" x1="0%" y1="0%" x2="0%" y2="100%">
      <stop offset="0%" style="stop-color:#0891b2;stop-opacity:1" />
      <stop offset="100%" style="stop-color:#06b6d4;stop-opacity:1" />
    </linearGradient>
  </defs>
  
  <!-- Liquid tree trunk -->
  <rect x="92" y="110" width="16" height="50" rx="8" fill="#8B7355" opacity="0.8"/>
  
  <!-- Left leaf branch 1 -->
  <path d="M 85 110 Q 60 85 50 70" stroke="url(#leafGradient)" stroke-width="8" fill="none" stroke-linecap="round"/>
  <ellipse cx="45" cy="65" rx="12" ry="20" fill="url(#leafGradient)" transform="rotate(-45 45 65)"/>
  
  <!-- Right leaf branch 1 -->
  <path d="M 115 110 Q 140 85 150 70" stroke="url(#leafGradient)" stroke-width="8" fill="none" stroke-linecap="round"/>
  <ellipse cx="155" cy="65" rx="12" ry="20" fill="url(#leafGradient)" transform="rotate(45 155 65)"/>
  
  <!-- Left leaf branch 2 -->
  <path d="M 85 95 Q 55 80 45 60" stroke="url(#leafGradient)" stroke-width="6" fill="none" stroke-linecap="round" opacity="0.7"/>
  <ellipse cx="40" cy="55" rx="10" ry="18" fill="url(#leafGradient)" transform="rotate(-50 40 55)" opacity="0.7"/>
  
  <!-- Right leaf branch 2 -->
  <path d="M 115 95 Q 145 80 155 60" stroke="url(#leafGradient)" stroke-width="6" fill="none" stroke-linecap="round" opacity="0.7"/>
  <ellipse cx="160" cy="55" rx="10" ry="18" fill="url(#leafGradient)" transform="rotate(50 160 55)" opacity="0.7"/>
  
  <!-- Liquid droplets around the tree -->
  <circle cx="75" cy="40" r="5" fill="url(#liquidGradient)" opacity="0.8"/>
  <circle cx="125" cy="40" r="5" fill="url(#liquidGradient)" opacity="0.8"/>
  <circle cx="100" cy="30" r="6" fill="url(#liquidGradient)" opacity="0.9"/>
  
  <!-- Air quality waves -->
  <g stroke="#10b981" stroke-width="2" fill="none" opacity="0.6">
    <path d="M 60 140 Q 65 135 70 140 T 80 140"/>
    <path d="M 120 140 Q 125 135 130 140 T 140 140"/>
  </g>
  
  <!-- Center circle accent -->
  <circle cx="100" cy="100" r="3" fill="#10b981"/>
  
  <!-- Text -->
  <text x="100" y="170" font-family="Poppins, sans-serif" font-size="16" font-weight="700" text-anchor="middle" fill="#6ee7b7" letter-spacing="1">
    AirFlow
  </text>
</svg>